<?xml version="1.0" encoding="utf-8"?>
<!-- Generator: Adobe Illustrator 17.1.0, SVG Export Plug-In . SVG Version: 6.00 Build 0)  -->
<!DOCTYPE svg PUBLIC "-//W3C//DTD SVG 1.1//EN" "http://www.w3.org/Graphics/SVG/1.1/DTD/svg11.dtd">
<svg version="1.1" id="Layer_1" xmlns="http://www.w3.org/2000/svg" xmlns:xlink="http://www.w3.org/1999/xlink" x="0px" y="0px"
	 viewBox="0 0 108 108" enable-background="new 0 0 108 108" xml:space="preserve">
<path fill="#5F6062" d="M1.904,54C1.904,25.229,25.229,1.905,54,1.905c28.772,0,52.096,23.324,52.096,52.095
	c0,28.771-23.323,52.095-52.096,52.095C25.229,106.095,1.904,82.771,1.904,54"/>
<path fill="#FFFFFF" d="M54,6.591C27.859,6.591,6.591,27.858,6.591,54c0,26.143,21.268,47.41,47.409,47.41
	c26.142,0,47.409-21.268,47.409-47.41C101.409,27.858,80.142,6.591,54,6.591z M54,7.699c25.369,0,46.03,20.512,46.29,45.821H7.712
	C7.972,28.211,28.631,7.699,54,7.699z"/>
<path fill="#5F6062" d="M68.494,67.534c0,0-1.134-0.197-1.322,0.149c-0.153,0.281,0.168,1.531-0.077,1.529
	c-2.068-0.02-7.066-0.012-7.93,0.771c-0.62,0.694-0.984,1.976-1.751,3.425c1.804,0.954,2.452,3.648,1.804,6.565
	c-0.319,1.428-1.28,2.541-2.528,4.014c0.282,0.171,0.438,1.145,0.549,2.442c0.047,0.539,0.176,1.388,0.588,2.023
	c-0.464-0.516-0.789-1.464-0.895-1.931c-0.314-1.412-0.593-1.708-0.881-1.785c-1.649,1.879-3.036,4.054-3.545,6.36
	c-0.069-4.155,5.32-9.012,5.303-10.811c-0.909,0.271-1.081-0.038-2.145,0.373c-1.519,0.589-1.374,0.961-3.434,1.374
	c2.06-0.824,2.045-1.448,3.228-1.94c1.646-0.687,1.939-0.325,2.573-1.053c0.229-2.537-0.462-3.805-1.525-4.046
	c-0.311-0.017-0.379,0.049-0.16,0.383c-0.219,0.181-0.502,0.361-1.146,0.58c1.923-2.918,2.415-6.005,3.117-6.737
	c0.402-0.418,4.447-0.957,7.936-0.927c0.32,0.002-0.168-4.42-0.394-4.42s-4.097,0.461-9.868,1.257
	c-1.088,0.151-1.839,0.075-2.776-0.095c-0.865-0.154-2.289,0.227-2.064,2.816c-2.176-2.57,1.587-4.918,3.431-4.958
	c2.59-0.057,2.565,1.447,2.952,1.354c0.703-0.169,2.843-0.422,3.968-0.563c-0.019-1.647-2.199-4.104-4.985-4.878
	c0.062-0.145,0.577-1.532,0.732-1.913c0.085-0.208-2.078-1.378-2.383-1.275c-0.318,0.107-0.163,0.193-0.492,0.615
	c-0.033,0.044,0.427,2.123,0.118,2.369c-0.254-1.118-0.554-2.578-1.146-2.744c-0.318-0.091-2.469,0.426-2.569,0.924
	c-0.056,0.28,0.637,1.401,0.422,1.574c-0.647,0.526-1.399,0.626-1.399,0.626s-1.146-1.255-1.351-1.436
	c-0.186-0.164-2.381,0.942-2.306,1.691c0.042,0.421,0.691,1.16,0.797,1.081c0.376-0.284,0.873-0.518,1.585-0.424
	c-2.289,1.163-5.685,5.176-5.141,6.921c0.582-0.394,0.718-1.031,1.673-0.361c0.639,0.448,4.276,2.392,4.356,7.864
	c0.08,5.476-7.501,10.909-9.895,6.585c2.781,3.166,8.345-1.29,8.345-6.275c0-4.986-3.183-6.562-3.476-7.111
	c-0.113-0.212-0.525-0.034-0.926,0.31c-0.486,0.417-1.401,0.271-3.23,1.931c-1.829,1.661-2.039,8.768-1.942,10.3
	c0.212,3.312,3.782,7.604,5.432,10.777c0.268,0.516,0.65,1.976,1.492,3.237c0.818,1.226,2.653,2.276,3.067,2.645
	c0.623,0.558,0.386,1.202,1.998,2c3.053,1.509,7.448-3.331,8.527-5.518c0.424-0.856,2.28-3.545,3.039-4.726
	c0.76-1.184,1.627-3.008,1.661-4.054c0.022-0.705-0.355-2.183-0.281-2.701c0.149-1.057,0.867-2.203,0.921-2.708
	c0.07-0.653-0.191-1.401,0.007-1.851c0.197-0.452,0.528-1.198,0.443-2.043c-0.058-0.571,0.167-1.008,0.156-2.074
	c-0.238-0.187-0.69-0.728-2.099-0.278c1.688-1.293,2.862-0.033,3.911,0.957c0.207,0.194,1.464-1.323,1.527-1.486
	c0.064-0.164-0.815-1.436-0.815-1.436s1.153,0.112,1.266-0.056C68.651,70.576,68.494,67.534,68.494,67.534"/>
<path fill="#FFFFFF" d="M27.756,26.604l0.724,2.915c0.104,0.346,0.145,0.693,0.217,1.039h0.016c0.064-0.354,0.089-0.701,0.185-1.056
	l0.732-2.899h1.257l-1.684,6.073h-0.982l-1.755-6.073H27.756z"/>
<rect x="32.003" y="26.603" fill="#FFFFFF" width="1.2" height="6.073"/>
<path fill="#FFFFFF" d="M35.84,26.604l1.498,3.664l0.016-0.015c-0.073-0.291-0.097-0.604-0.097-0.918v-2.73h1.201v6.073h-1.136
	l-1.482-3.665l-0.017,0.016l0.057,0.612l0.008,0.25v2.787h-1.2v-6.073H35.84z"/>
<polygon fill="#FFFFFF" points="42.708,26.604 42.708,27.731 41.759,27.731 41.759,32.676 40.559,32.676 40.559,27.731 
	39.616,27.731 39.616,26.604 "/>
<path fill="#FFFFFF" d="M45.852,26.603l1.458,6.073h-1.281l-0.226-1.024h-1.215l-0.218,1.024h-1.191l1.409-6.073H45.852z
	 M45.32,29.084l-0.137-0.918h-0.016l-0.128,0.918l-0.258,1.619h0.845L45.32,29.084z"/>
<path fill="#FFFFFF" d="M52.173,29.294v0.475c0,1.288-0.314,3.004-1.948,3.004c-1.636,0-2.168-1.755-2.168-3.1
	c0-1.401,0.452-3.166,2.168-3.166c0.926,0,1.529,0.581,1.787,1.442l-1.167,0.451c-0.057-0.306-0.153-0.782-0.612-0.782
	c-0.814-0.048-0.894,1.45-0.894,2.022c0,0.628,0.04,2.021,0.926,2.021c0.612,0,0.708-0.821,0.708-1.24h-0.764v-1.127H52.173z"/>
<polygon fill="#FFFFFF" points="55.875,26.604 55.875,27.731 54.659,27.731 54.659,29.052 55.729,29.052 55.729,30.179 
	54.659,30.179 54.659,31.548 55.891,31.548 55.891,32.676 53.459,32.676 53.459,26.604 "/>
<polygon fill="#FFFFFF" points="61.24,26.622 61.24,28.998 62.457,28.998 62.457,26.622 63.656,26.622 63.656,32.694 62.457,32.694 
	62.457,30.125 61.24,30.125 61.24,32.694 60.039,32.694 60.039,26.622 "/>
<polygon fill="#FFFFFF" points="67.569,26.622 67.569,27.75 66.353,27.75 66.353,29.071 67.423,29.071 67.423,30.198 66.353,30.198 
	66.353,31.567 67.585,31.567 67.585,32.694 65.152,32.694 65.152,26.622 "/>
<path fill="#FFFFFF" d="M71.333,26.622l1.458,6.072h-1.28l-0.225-1.023h-1.216l-0.219,1.023h-1.191l1.41-6.072H71.333z
	 M70.801,29.103l-0.136-0.918h-0.017l-0.128,0.918l-0.259,1.619h0.845L70.801,29.103z"/>
<path fill="#FFFFFF" d="M73.925,32.694v-6.072h1.208c0.766,0,2.134,0.081,2.134,1.739c0,0.67-0.265,1.24-0.862,1.571l1.056,2.762
	h-1.264l-1.055-2.802h-0.016v2.802H73.925z M75.126,29.231l0.209,0.008c0.547,0,0.764-0.37,0.764-0.869
	c0-0.435-0.209-0.789-0.812-0.757h-0.16V29.231z"/>
<polygon fill="#FFFFFF" points="81.534,26.622 81.534,27.75 80.583,27.75 80.583,32.694 79.383,32.694 79.383,27.75 78.44,27.75 
	78.44,26.622 "/>
<g>
	<path fill="#FFFFFF" d="M24.441,37.176h1.057v4.081h-1.101c-0.194-1.624-1.028-2.948-2.815-2.948c-2.189,0-2.739,1.995-2.739,3.946
		c0,1.92,0.595,3.96,2.739,3.96c1.698,0,2.517-1.191,2.681-2.77h1.281c-0.18,2.591-1.669,4.05-4.275,4.05
		c-3.126,0-4.766-2.204-4.766-5.376c0-2.799,1.847-5.093,4.944-5.093c0.968,0,2.055,0.462,2.71,1.087L24.441,37.176z"/>
</g>
<g>
	<path fill="#FFFFFF" d="M39.05,42.269c0,2.964-2.145,5.227-5.375,5.227c-3.233,0-5.376-2.263-5.376-5.227
		c0-2.963,2.143-5.242,5.376-5.242C36.905,37.027,39.05,39.306,39.05,42.269z M30.637,42.269c0,2.13,0.684,4.066,3.081,4.066
		c2.354,0,2.994-1.936,2.994-4.066c0-2.129-0.639-4.08-3.037-4.08C31.321,38.189,30.637,40.14,30.637,42.269z"/>
	<path fill="#FFFFFF" d="M41.463,47.199v-1.102h0.923c0.536,0,0.76-0.328,0.76-0.745v-6.374c0-0.358-0.253-0.551-0.701-0.551h-0.982
		v-1.102h9.397v4.065h-1.102c-0.298-2.442-0.834-2.963-2.859-2.963h-1.668v3.097h0.699c0.954,0,1.236-0.7,1.236-1.459v-0.387h1.103
		v4.973h-1.103v-0.566c0-1.057-0.401-1.459-1.325-1.459h-0.61v2.695c0,0.566,0.252,0.775,0.938,0.775h0.745v1.102H41.463z"/>
	<path fill="#FFFFFF" d="M53.719,47.199v-1.102h0.924c0.536,0,0.759-0.328,0.759-0.745v-6.374c0-0.358-0.253-0.551-0.7-0.551h-0.983
		v-1.102h9.397v4.065h-1.103c-0.298-2.442-0.833-2.963-2.858-2.963h-1.668v3.097h0.7c0.953,0,1.235-0.7,1.235-1.459v-0.387h1.102
		v4.973h-1.102v-0.566c0-1.057-0.401-1.459-1.325-1.459h-0.61v2.695c0,0.566,0.252,0.775,0.938,0.775h0.744v1.102H53.719z"/>
	<path fill="#FFFFFF" d="M66.035,47.199v-1.102h0.833c0.507,0,0.791-0.15,0.791-1.043v-5.792c0-0.641-0.181-0.834-0.953-0.834
		h-0.671v-1.102h9.829v3.932h-1.103c-0.224-2.025-0.402-2.83-2.398-2.83h-2.619v3.097h0.787c0.896,0,1.296-0.446,1.296-1.653v-0.193
		h1.104v4.973h-1.104v-0.358c0-1.206-0.4-1.668-1.296-1.668h-0.787v3.471h2.979c1.369,0,1.904-0.849,2.039-3.068h1.103v4.17H66.035z
		"/>
	<path fill="#FFFFFF" d="M79.021,47.199v-1.102h0.834c0.507,0,0.789-0.15,0.789-1.043v-5.792c0-0.641-0.179-0.834-0.954-0.834
		h-0.669v-1.102h9.828v3.932h-1.102c-0.224-2.025-0.401-2.83-2.397-2.83h-2.621v3.097h0.789c0.894,0,1.296-0.446,1.296-1.653v-0.193
		h1.102v4.973h-1.102v-0.358c0-1.206-0.402-1.668-1.296-1.668h-0.789v3.471h2.979c1.369,0,1.906-0.849,2.04-3.068h1.102v4.17H79.021
		z"/>
</g>
<g>
	<path fill="#FFFFFF" d="M48.757,20.568c-0.06,0.122-0.126,0.233-0.2,0.334c-0.075,0.101-0.156,0.188-0.247,0.265
		c-0.091,0.076-0.182,0.134-0.275,0.174c-0.091,0.039-0.187,0.059-0.285,0.059c-0.216,0-0.355-0.066-0.416-0.197
		c-0.061-0.131-0.091-0.287-0.091-0.467c-0.165,0.195-0.328,0.354-0.488,0.478c-0.161,0.124-0.344,0.186-0.55,0.186
		c-0.122,0-0.222-0.034-0.303-0.101c-0.08-0.066-0.14-0.157-0.178-0.271c-0.038-0.113-0.057-0.234-0.057-0.364
		c0-0.278,0.071-0.572,0.213-0.88c0.142-0.309,0.334-0.569,0.579-0.778c0.245-0.21,0.508-0.315,0.789-0.315
		c0.13,0,0.232,0.025,0.307,0.077c0.074,0.051,0.125,0.109,0.152,0.173c0.028,0.063,0.052,0.135,0.073,0.213l0.114-0.386h0.683
		l-0.574,1.883c-0.042,0.137-0.062,0.219-0.062,0.247c0,0.027,0.008,0.05,0.026,0.068c0.018,0.019,0.037,0.028,0.06,0.028
		c0.134,0,0.277-0.142,0.429-0.426H48.757z M47.605,19.335c0-0.1-0.019-0.187-0.057-0.258c-0.039-0.073-0.107-0.109-0.208-0.109
		c-0.155,0-0.305,0.09-0.451,0.267c-0.144,0.178-0.261,0.394-0.352,0.646c-0.088,0.253-0.133,0.464-0.133,0.637
		c0,0.25,0.079,0.375,0.234,0.375c0.109,0,0.222-0.05,0.336-0.15c0.114-0.1,0.219-0.233,0.315-0.4
		c0.101-0.172,0.18-0.348,0.234-0.525C47.578,19.641,47.605,19.48,47.605,19.335z"/>
	<path fill="#FFFFFF" d="M52.254,20.531c-0.084,0.205-0.206,0.399-0.367,0.587c-0.159,0.188-0.375,0.282-0.647,0.282
		c-0.168,0-0.288-0.046-0.356-0.136c-0.069-0.091-0.104-0.196-0.104-0.316c0-0.051,0.01-0.119,0.03-0.204
		c0.02-0.084,0.045-0.179,0.075-0.281l0.102-0.349c-0.22,0.358-0.447,0.662-0.681,0.911c-0.234,0.25-0.494,0.375-0.779,0.375
		c-0.147,0-0.259-0.043-0.337-0.127c-0.079-0.084-0.118-0.184-0.118-0.299c0-0.109,0.029-0.256,0.086-0.442l0.312-1.019
		c0.042-0.123,0.062-0.212,0.062-0.266c0-0.024-0.007-0.05-0.023-0.075c-0.016-0.027-0.041-0.039-0.078-0.039
		c-0.122,0-0.276,0.144-0.461,0.432h-0.283c0.14-0.224,0.296-0.421,0.468-0.589c0.171-0.169,0.386-0.254,0.644-0.254
		c0.117,0,0.225,0.031,0.323,0.094c0.097,0.063,0.146,0.18,0.146,0.351c0,0.101-0.012,0.192-0.04,0.272l-0.253,0.821
		c-0.058,0.189-0.086,0.326-0.086,0.41c0,0.046,0.014,0.089,0.042,0.13c0.027,0.041,0.066,0.062,0.116,0.062
		c0.096,0,0.216-0.073,0.358-0.221c0.142-0.147,0.297-0.376,0.465-0.688c0.168-0.312,0.332-0.703,0.493-1.172h0.735l-0.578,1.884
		c-0.037,0.134-0.055,0.214-0.055,0.241c0,0.024,0.01,0.05,0.029,0.076c0.02,0.025,0.041,0.038,0.063,0.038
		c0.076,0,0.15-0.052,0.22-0.154c0.071-0.103,0.132-0.215,0.189-0.334H52.254z"/>
	<path fill="#FFFFFF" d="M55.117,19.215c0,0.085-0.026,0.159-0.084,0.223c-0.057,0.064-0.133,0.096-0.23,0.096
		c-0.074,0-0.132-0.015-0.174-0.044c-0.043-0.029-0.076-0.069-0.099-0.121c-0.024-0.051-0.053-0.127-0.088-0.229
		c-0.021-0.07-0.053-0.124-0.098-0.164c-0.043-0.039-0.127-0.059-0.245-0.059c-0.106,0-0.203,0.027-0.289,0.083
		c-0.086,0.056-0.128,0.129-0.128,0.22c0,0.062,0.017,0.121,0.053,0.176c0.034,0.055,0.078,0.108,0.128,0.157
		c0.05,0.05,0.13,0.119,0.236,0.209c0.202,0.166,0.348,0.304,0.44,0.418c0.092,0.113,0.138,0.252,0.138,0.419
		c0,0.136-0.04,0.265-0.117,0.386c-0.078,0.121-0.208,0.221-0.39,0.297c-0.181,0.076-0.413,0.115-0.695,0.115
		c-0.405,0-0.69-0.075-0.855-0.224c-0.165-0.15-0.247-0.295-0.247-0.435c0-0.092,0.031-0.174,0.096-0.243
		c0.063-0.07,0.147-0.105,0.253-0.105c0.21,0,0.33,0.135,0.36,0.404c0.016,0.115,0.047,0.207,0.099,0.273
		c0.05,0.067,0.155,0.101,0.313,0.101c0.138,0,0.252-0.035,0.339-0.105c0.088-0.07,0.133-0.159,0.133-0.269
		c0-0.058-0.015-0.114-0.045-0.17c-0.03-0.056-0.092-0.123-0.186-0.205c-0.167-0.14-0.305-0.263-0.413-0.37
		c-0.108-0.107-0.19-0.21-0.245-0.308c-0.056-0.099-0.084-0.204-0.084-0.312c0-0.097,0.031-0.202,0.095-0.315
		c0.064-0.113,0.184-0.212,0.362-0.297c0.176-0.086,0.417-0.128,0.719-0.128c0.187,0,0.342,0.017,0.471,0.051
		c0.127,0.034,0.225,0.078,0.295,0.13c0.069,0.053,0.117,0.108,0.142,0.167C55.104,19.097,55.117,19.156,55.117,19.215z"/>
	<path fill="#FFFFFF" d="M57.274,18.78l-0.086,0.284h-0.615l-0.466,1.525c-0.036,0.109-0.054,0.188-0.054,0.238
		c0,0.043,0.016,0.083,0.044,0.119c0.029,0.036,0.065,0.054,0.107,0.054c0.12,0,0.226-0.059,0.315-0.175
		c0.091-0.117,0.173-0.243,0.244-0.378h0.291c-0.115,0.255-0.245,0.454-0.392,0.598c-0.146,0.144-0.281,0.238-0.406,0.284
		c-0.127,0.046-0.243,0.07-0.349,0.07c-0.178,0-0.315-0.052-0.414-0.155c-0.099-0.103-0.148-0.24-0.148-0.411
		c0-0.117,0.031-0.277,0.094-0.479l0.4-1.29h-0.577l0.089-0.284h0.576l0.284-0.942h0.734l-0.285,0.942H57.274z"/>
	<path fill="#FFFFFF" d="M58.896,20.568c-0.08,0.179-0.205,0.362-0.377,0.55c-0.171,0.188-0.385,0.282-0.642,0.282
		c-0.174,0-0.303-0.044-0.39-0.129c-0.087-0.086-0.13-0.187-0.13-0.304c0-0.119,0.038-0.285,0.114-0.497l0.398-1.09
		c0.039-0.099,0.059-0.166,0.059-0.201c0-0.022-0.009-0.043-0.028-0.062c-0.018-0.019-0.038-0.027-0.061-0.027
		c-0.071,0-0.147,0.054-0.23,0.163c-0.084,0.109-0.147,0.207-0.187,0.294h-0.271c0.121-0.272,0.278-0.482,0.474-0.632
		c0.194-0.149,0.389-0.224,0.581-0.224c0.137,0,0.25,0.033,0.339,0.1c0.09,0.066,0.136,0.156,0.136,0.267
		c0,0.117-0.024,0.236-0.069,0.356l-0.481,1.294c-0.033,0.088-0.05,0.161-0.05,0.217c0,0.024,0.01,0.048,0.03,0.072
		c0.02,0.023,0.04,0.036,0.062,0.036c0.062,0,0.127-0.033,0.192-0.099c0.066-0.066,0.147-0.188,0.247-0.365H58.896z M59.123,17.446
		c0,0.111-0.039,0.206-0.118,0.286c-0.079,0.079-0.171,0.119-0.278,0.119c-0.116,0-0.213-0.04-0.29-0.119
		c-0.078-0.08-0.116-0.175-0.116-0.286c0-0.107,0.038-0.2,0.116-0.279c0.077-0.079,0.174-0.119,0.29-0.119
		c0.073,0,0.142,0.017,0.201,0.054c0.061,0.036,0.109,0.083,0.144,0.142C59.106,17.303,59.123,17.37,59.123,17.446z"/>
	<path fill="#FFFFFF" d="M62.506,20.5c-0.058,0.109-0.138,0.228-0.239,0.358c-0.102,0.129-0.228,0.245-0.38,0.344
		c-0.152,0.1-0.318,0.15-0.493,0.15c-0.152,0-0.271-0.037-0.361-0.111c-0.088-0.075-0.133-0.171-0.133-0.293
		c0-0.095,0.026-0.223,0.078-0.386l0.225-0.745c0.065-0.202,0.096-0.34,0.096-0.417c0-0.045-0.014-0.087-0.041-0.125
		c-0.028-0.037-0.067-0.055-0.115-0.055c-0.112,0-0.247,0.093-0.409,0.281c-0.16,0.188-0.323,0.441-0.488,0.76
		c-0.167,0.319-0.31,0.668-0.432,1.047h-0.735l0.56-1.811c0.05-0.181,0.075-0.286,0.075-0.314c0-0.025-0.008-0.05-0.019-0.076
		c-0.013-0.026-0.037-0.039-0.072-0.039c-0.079,0-0.156,0.05-0.229,0.151c-0.073,0.101-0.135,0.211-0.186,0.33h-0.259
		c0.078-0.221,0.198-0.419,0.361-0.596c0.162-0.177,0.369-0.266,0.62-0.266c0.161,0,0.281,0.043,0.36,0.129
		c0.079,0.087,0.118,0.179,0.118,0.276c0,0.053-0.01,0.134-0.034,0.244c-0.023,0.108-0.047,0.211-0.076,0.306l-0.108,0.318
		c0.255-0.394,0.496-0.704,0.72-0.931c0.225-0.227,0.473-0.341,0.748-0.341c0.158,0,0.272,0.045,0.346,0.138
		c0.071,0.091,0.107,0.191,0.107,0.297c0,0.066-0.024,0.191-0.075,0.374l-0.323,1.075c-0.037,0.134-0.055,0.228-0.055,0.282
		c0,0.02,0.006,0.04,0.02,0.059c0.013,0.018,0.031,0.028,0.053,0.028c0.059,0,0.133-0.041,0.222-0.123
		c0.091-0.081,0.172-0.188,0.249-0.32H62.506z"/>
</g>
<polygon fill="#FFFFFF" points="43.234,20.561 30.649,20.077 43.234,19.592 "/>
<polygon fill="#FFFFFF" points="63.816,19.275 77.351,19.76 63.816,20.244 "/>
<path fill="#5F6062" d="M27.406,66.62l1.876,7.543c0.271,0.897,0.375,1.794,0.562,2.689h0.042c0.167-0.917,0.229-1.813,0.479-2.73
	l1.897-7.502h3.251l-4.355,15.713h-2.542L24.073,66.62H27.406z"/>
<polygon fill="#5F6062" points="75.849,66.62 75.849,72.769 78.996,72.769 78.996,66.62 82.101,66.62 82.101,82.333 78.996,82.333 
	78.996,75.685 75.849,75.685 75.849,82.333 72.743,82.333 72.743,66.62 "/>
<g>
</g>
<g>
</g>
<g>
</g>
<g>
</g>
<g>
</g>
<g>
</g>
</svg>
