<svg xmlns="http://www.w3.org/2000/svg" viewBox="0 0 108 108" enable-background="new 0 0 108 108"><path fill="#5F6062" d="M1.904 54c0-28.771 23.325-52.095 52.096-52.095 28.772 0 52.096 23.324 52.096 52.095 0 28.771-23.323 52.095-52.096 52.095-28.771 0-52.096-23.324-52.096-52.095"/><path fill="#fff" d="M54 6.591c-26.141 0-47.409 21.267-47.409 47.409 0 26.143 21.268 47.41 47.409 47.41 26.142 0 47.409-21.268 47.409-47.41 0-26.142-21.267-47.409-47.409-47.409zm0 1.108c25.369 0 46.03 20.512 46.29 45.821h-92.578c.26-25.309 20.919-45.821 46.288-45.821z"/><path fill="#5F6062" d="M68.494 67.534s-1.134-.197-1.322.149c-.153.281.168 1.531-.077 1.529-2.068-.02-7.066-.012-7.93.771-.62.694-.984 1.976-1.751 3.425 1.804.954 2.452 3.648 1.804 6.565-.319 1.428-1.28 2.541-2.528 4.014.282.171.438 1.145.549 2.442.047.539.176 1.388.588 2.023-.464-.516-.789-1.464-.895-1.931-.314-1.412-.593-1.708-.881-1.785-1.649 1.879-3.036 4.054-3.545 6.36-.069-4.155 5.32-9.012 5.303-10.811-.909.271-1.081-.038-2.145.373-1.519.589-1.374.961-3.434 1.374 2.06-.824 2.045-1.448 3.228-1.94 1.646-.687 1.939-.325 2.573-1.053.229-2.537-.462-3.805-1.525-4.046-.311-.017-.379.049-.16.383-.219.181-.502.361-1.146.58 1.923-2.918 2.415-6.005 3.117-6.737.402-.418 4.447-.957 7.936-.927.32.002-.168-4.42-.394-4.42s-4.097.461-9.868 1.257c-1.088.151-1.839.075-2.776-.095-.865-.154-2.289.227-2.064 2.816-2.176-2.57 1.587-4.918 3.431-4.958 2.59-.057 2.565 1.447 2.952 1.354.703-.169 2.843-.422 3.968-.563-.019-1.647-2.199-4.104-4.985-4.878.062-.145.577-1.532.732-1.913.085-.208-2.078-1.378-2.383-1.275-.318.107-.163.193-.492.615-.033.044.427 2.123.118 2.369-.254-1.118-.554-2.578-1.146-2.744-.318-.091-2.469.426-2.569.924-.056.28.637 1.401.422 1.574-.647.526-1.399.626-1.399.626s-1.146-1.255-1.351-1.436c-.186-.164-2.381.942-2.306 1.691.042.421.691 1.16.797 1.081.376-.284.873-.518 1.585-.424-2.289 1.163-5.685 5.176-5.141 6.921.582-.394.718-1.031 1.673-.361.639.448 4.276 2.392 4.356 7.864.08 5.476-7.501 10.909-9.895 6.585 2.781 3.166 8.345-1.29 8.345-6.275 0-4.986-3.183-6.562-3.476-7.111-.113-.212-.525-.034-.926.31-.486.417-1.401.271-3.23 1.931-1.829 1.661-2.039 8.768-1.942 10.3.212 3.312 3.782 7.604 5.432 10.777.268.516.65 1.976 1.492 3.237.818 1.226 2.653 2.276 3.067 2.645.623.558.386 1.202 1.998 2 3.053 1.509 7.448-3.331 8.527-5.518.424-.856 2.28-3.545 3.039-4.726.76-1.184 1.627-3.008 1.661-4.054.022-.705-.355-2.183-.281-2.701.149-1.057.867-2.203.921-2.708.07-.653-.191-1.401.007-1.851.197-.452.528-1.198.443-2.043-.058-.571.167-1.008.156-2.074-.238-.187-.69-.728-2.099-.278 1.688-1.293 2.862-.033 3.911.957.207.194 1.464-1.323 1.527-1.486.064-.164-.815-1.436-.815-1.436s1.153.112 1.266-.056c.11-.166-.047-3.208-.047-3.208"/><path fill="#fff" d="M27.756 26.604l.724 2.915c.104.346.145.693.217 1.039h.016c.064-.354.089-.701.185-1.056l.732-2.899h1.257l-1.684 6.073h-.982l-1.755-6.073h1.29zm4.247-.001h1.2v6.073h-1.2zm3.837.001l1.498 3.664.016-.015c-.073-.291-.097-.604-.097-.918v-2.73h1.201v6.073h-1.136l-1.482-3.665-.017.016.057.612.008.25v2.787h-1.2v-6.073h1.152zm6.868 0v1.127h-.949v4.945h-1.2v-4.945h-.943v-1.127zm3.144-.001l1.458 6.073h-1.281l-.226-1.024h-1.215l-.218 1.024h-1.191l1.409-6.073h1.264zm-.532 2.481l-.137-.918h-.016l-.128.918-.258 1.619h.845l-.306-1.619zm6.853.21v.475c0 1.288-.314 3.004-1.948 3.004-1.636 0-2.168-1.755-2.168-3.1 0-1.401.452-3.166 2.168-3.166.926 0 1.529.581 1.787 1.442l-1.167.451c-.057-.306-.153-.782-.612-.782-.814-.048-.894 1.45-.894 2.022 0 .628.04 2.021.926 2.021.612 0 .708-.821.708-1.24h-.764v-1.127h1.964zm3.702-2.69v1.127h-1.216v1.321h1.07v1.127h-1.07v1.369h1.232v1.128h-2.432v-6.072zm5.365.018v2.376h1.217v-2.376h1.199v6.072h-1.199v-2.569h-1.217v2.569h-1.201v-6.072zm6.329 0v1.128h-1.216v1.321h1.07v1.127h-1.07v1.369h1.232v1.127h-2.433v-6.072zm3.764 0l1.458 6.072h-1.28l-.225-1.023h-1.216l-.219 1.023h-1.191l1.41-6.072h1.263zm-.532 2.481l-.136-.918h-.017l-.128.918-.259 1.619h.845l-.305-1.619zm3.124 3.591v-6.072h1.208c.766 0 2.134.081 2.134 1.739 0 .67-.265 1.24-.862 1.571l1.056 2.762h-1.264l-1.055-2.802h-.016v2.802h-1.201zm1.201-3.463l.209.008c.547 0 .764-.37.764-.869 0-.435-.209-.789-.812-.757h-.16v1.618zm6.408-2.609v1.128h-.951v4.944h-1.2v-4.944h-.943v-1.128zm-57.093 10.554h1.057v4.081h-1.101c-.194-1.624-1.028-2.948-2.815-2.948-2.189 0-2.739 1.995-2.739 3.946 0 1.92.595 3.96 2.739 3.96 1.698 0 2.517-1.191 2.681-2.77h1.281c-.18 2.591-1.669 4.05-4.275 4.05-3.126 0-4.766-2.204-4.766-5.376 0-2.799 1.847-5.093 4.944-5.093.968 0 2.055.462 2.71 1.087l.284-.937zm14.609 5.093c0 2.964-2.145 5.227-5.375 5.227-3.233 0-5.376-2.263-5.376-5.227 0-2.963 2.143-5.242 5.376-5.242 3.23 0 5.375 2.279 5.375 5.242zm-8.413 0c0 2.13.684 4.066 3.081 4.066 2.354 0 2.994-1.936 2.994-4.066 0-2.129-.639-4.08-3.037-4.08-2.354 0-3.038 1.951-3.038 4.08zm10.826 4.93v-1.102h.923c.536 0 .76-.328.76-.745v-6.374c0-.358-.253-.551-.701-.551h-.982v-1.102h9.397v4.065h-1.102c-.298-2.442-.834-2.963-2.859-2.963h-1.668v3.097h.699c.954 0 1.236-.7 1.236-1.459v-.387h1.103v4.973h-1.103v-.566c0-1.057-.401-1.459-1.325-1.459h-.61v2.695c0 .566.252.775.938.775h.745v1.102h-5.451zm12.256 0v-1.102h.924c.536 0 .759-.328.759-.745v-6.374c0-.358-.253-.551-.7-.551h-.983v-1.102h9.397v4.065h-1.103c-.298-2.442-.833-2.963-2.858-2.963h-1.668v3.097h.7c.953 0 1.235-.7 1.235-1.459v-.387h1.102v4.973h-1.102v-.566c0-1.057-.401-1.459-1.325-1.459h-.61v2.695c0 .566.252.775.938.775h.744v1.102h-5.45zm12.316 0v-1.102h.833c.507 0 .791-.15.791-1.043v-5.792c0-.641-.181-.834-.953-.834h-.671v-1.102h9.829v3.932h-1.103c-.224-2.025-.402-2.83-2.398-2.83h-2.619v3.097h.787c.896 0 1.296-.446 1.296-1.653v-.193h1.104v4.973h-1.104v-.358c0-1.206-.4-1.668-1.296-1.668h-.787v3.471h2.979c1.369 0 1.904-.849 2.039-3.068h1.103v4.17h-9.83zm12.986 0v-1.102h.834c.507 0 .789-.15.789-1.043v-5.792c0-.641-.179-.834-.954-.834h-.669v-1.102h9.828v3.932h-1.102c-.224-2.025-.401-2.83-2.397-2.83h-2.621v3.097h.789c.894 0 1.296-.446 1.296-1.653v-.193h1.102v4.973h-1.102v-.358c0-1.206-.402-1.668-1.296-1.668h-.789v3.471h2.979c1.369 0 1.906-.849 2.04-3.068h1.102v4.17h-9.829zm-30.264-26.631c-.06.122-.126.233-.2.334-.075.101-.156.188-.247.265-.091.076-.182.134-.275.174-.091.039-.187.059-.285.059-.216 0-.355-.066-.416-.197s-.091-.287-.091-.467c-.165.195-.328.354-.488.478-.161.124-.344.186-.55.186-.122 0-.222-.034-.303-.101-.08-.066-.14-.157-.178-.271-.038-.113-.057-.234-.057-.364 0-.278.071-.572.213-.88.142-.309.334-.569.579-.778.245-.21.508-.315.789-.315.13 0 .232.025.307.077.074.051.125.109.152.173l.073.213.114-.386h.683l-.574 1.883-.062.247.026.068.06.028c.134 0 .277-.142.429-.426h.301zm-1.152-1.233c0-.1-.019-.187-.057-.258-.039-.073-.107-.109-.208-.109-.155 0-.305.09-.451.267-.144.178-.261.394-.352.646-.088.253-.133.464-.133.637 0 .25.079.375.234.375.109 0 .222-.05.336-.15.114-.1.219-.233.315-.4.101-.172.18-.348.234-.525.055-.177.082-.338.082-.483zm4.649 1.196c-.084.205-.206.399-.367.587-.159.188-.375.282-.647.282-.168 0-.288-.046-.356-.136-.069-.091-.104-.196-.104-.316l.03-.204.075-.281.102-.349c-.22.358-.447.662-.681.911-.234.25-.494.375-.779.375-.147 0-.259-.043-.337-.127-.079-.084-.118-.184-.118-.299 0-.109.029-.256.086-.442l.312-1.019.062-.266-.023-.075-.078-.039c-.122 0-.276.144-.461.432h-.283c.14-.224.296-.421.468-.589.171-.169.386-.254.644-.254.117 0 .225.031.323.094.097.063.146.18.146.351 0 .101-.012.192-.04.272l-.253.821c-.058.189-.086.326-.086.41l.042.13.116.062c.096 0 .216-.073.358-.221.142-.147.297-.376.465-.688.168-.312.332-.703.493-1.172h.735l-.578 1.884-.055.241.029.076.063.038c.076 0 .15-.052.22-.154.071-.103.132-.215.189-.334h.288zm2.863-1.316c0 .085-.026.159-.084.223-.057.064-.133.096-.23.096l-.174-.044-.099-.121-.088-.229-.098-.164c-.043-.039-.127-.059-.245-.059-.106 0-.203.027-.289.083-.086.056-.128.129-.128.22l.053.176.128.157.236.209c.202.166.348.304.44.418.092.113.138.252.138.419 0 .136-.04.265-.117.386-.078.121-.208.221-.39.297-.181.076-.413.115-.695.115-.405 0-.69-.075-.855-.224-.165-.15-.247-.295-.247-.435 0-.092.031-.174.096-.243.063-.07.147-.105.253-.105.21 0 .33.135.36.404.016.115.047.207.099.273.05.067.155.101.313.101.138 0 .252-.035.339-.105.088-.07.133-.159.133-.269l-.045-.17c-.03-.056-.092-.123-.186-.205-.167-.14-.305-.263-.413-.37-.108-.107-.19-.21-.245-.308-.056-.099-.084-.204-.084-.312 0-.097.031-.202.095-.315.064-.113.184-.212.362-.297.176-.086.417-.128.719-.128.187 0 .342.017.471.051.127.034.225.078.295.13.069.053.117.108.142.167l.04.178zm2.157-.435l-.086.284h-.615l-.466 1.525-.054.238.044.119.107.054c.12 0 .226-.059.315-.175.091-.117.173-.243.244-.378h.291c-.115.255-.245.454-.392.598-.146.144-.281.238-.406.284-.127.046-.243.07-.349.07-.178 0-.315-.052-.414-.155-.099-.103-.148-.24-.148-.411 0-.117.031-.277.094-.479l.4-1.29h-.577l.089-.284h.576l.284-.942h.734l-.285.942h.614zm1.622 1.788c-.08.179-.205.362-.377.55-.171.188-.385.282-.642.282-.174 0-.303-.044-.39-.129-.087-.086-.13-.187-.13-.304 0-.119.038-.285.114-.497l.398-1.09.059-.201-.028-.062-.061-.027c-.071 0-.147.054-.23.163-.084.109-.147.207-.187.294h-.271c.121-.272.278-.482.474-.632.194-.149.389-.224.581-.224.137 0 .25.033.339.1.09.066.136.156.136.267 0 .117-.024.236-.069.356l-.481 1.294-.05.217.03.072.062.036c.062 0 .127-.033.192-.099.066-.066.147-.188.247-.365h.284zm.227-3.122c0 .111-.039.206-.118.286-.079.079-.171.119-.278.119-.116 0-.213-.04-.29-.119-.078-.08-.116-.175-.116-.286 0-.107.038-.2.116-.279.077-.079.174-.119.29-.119.073 0 .142.017.201.054l.144.142c.034.059.051.126.051.202zm3.383 3.054c-.058.109-.138.228-.239.358-.102.129-.228.245-.38.344-.152.1-.318.15-.493.15-.152 0-.271-.037-.361-.111-.088-.075-.133-.171-.133-.293 0-.095.026-.223.078-.386l.225-.745c.065-.202.096-.34.096-.417l-.041-.125-.115-.055c-.112 0-.247.093-.409.281-.16.188-.323.441-.488.76-.167.319-.31.668-.432 1.047h-.735l.56-1.811.075-.314-.019-.076-.072-.039c-.079 0-.156.05-.229.151-.073.101-.135.211-.186.33h-.259c.078-.221.198-.419.361-.596.162-.177.369-.266.62-.266.161 0 .281.043.36.129.079.087.118.179.118.276l-.034.244-.076.306-.108.318c.255-.394.496-.704.72-.931.225-.227.473-.341.748-.341.158 0 .272.045.346.138.071.091.107.191.107.297 0 .066-.024.191-.075.374l-.323 1.075-.055.282.02.059.053.028c.059 0 .133-.041.222-.123.091-.081.172-.188.249-.32h.304zm-19.272.061l-12.585-.484 12.585-.485zm20.582-1.286l13.535.485-13.535.484z"/><path fill="#5F6062" d="M27.406 66.62l1.876 7.543c.271.897.375 1.794.562 2.689h.042c.167-.917.229-1.813.479-2.73l1.897-7.502h3.251l-4.355 15.713h-2.542l-4.543-15.713h3.333zm48.443 0v6.149h3.147v-6.149h3.105v15.713h-3.105v-6.648h-3.147v6.648h-3.106v-15.713z"/></svg>