<svg preserveAspectRatio="xMinYMin meet" viewBox="0 0 104 104" version="1.1" xmlns="http://www.w3.org/2000/svg" xmlns:xlink="http://www.w3.org/1999/xlink"><g stroke="none" stroke-width="1" fill="none" fill-rule="evenodd"><g><path d="M52,4.591 C25.859,4.591 4.591,25.858 4.591,52 C4.591,78.143 25.859,99.41 52,99.41 C78.142,99.41 99.409,78.142 99.409,52 C99.409,25.858 78.142,4.591 52,4.591 L52,4.591 Z M52,5.699 C77.369,5.699 98.03,26.211 98.29,51.52 L5.712,51.52 C5.972,26.211 26.631,5.699 52,5.699 Z M66.494,65.534 C66.494,65.534 65.36,65.337 65.172,65.683 C65.019,65.964 65.34,67.214 65.095,67.212 C63.027,67.192 58.029,67.2 57.165,67.983 C56.545,68.677 56.181,69.959 55.414,71.408 C57.218,72.362 57.866,75.056 57.218,77.973 C56.899,79.401 55.938,80.514 54.69,81.987 C54.972,82.158 55.128,83.132 55.239,84.429 C55.286,84.968 55.415,85.817 55.827,86.452 C55.363,85.936 55.038,84.988 54.932,84.521 C54.618,83.109 54.339,82.813 54.051,82.736 C52.402,84.615 51.015,86.79 50.506,89.096 C50.437,84.941 55.826,80.084 55.809,78.285 C54.9,78.556 54.728,78.247 53.664,78.658 C52.145,79.247 52.29,79.619 50.23,80.032 C52.29,79.208 52.275,78.584 53.458,78.092 C55.104,77.405 55.397,77.767 56.031,77.039 C56.26,74.502 55.569,73.234 54.506,72.993 C54.195,72.976 54.127,73.042 54.346,73.376 C54.127,73.557 53.844,73.737 53.2,73.956 C55.123,71.038 55.615,67.951 56.317,67.219 C56.719,66.801 60.764,66.262 64.253,66.292 C64.573,66.294 64.085,61.872 63.859,61.872 C63.633,61.872 59.762,62.333 53.991,63.129 C52.903,63.28 52.152,63.204 51.215,63.034 C50.35,62.88 48.926,63.261 49.151,65.85 C46.975,63.28 50.738,60.932 52.582,60.892 C55.172,60.835 55.147,62.339 55.534,62.246 C56.237,62.077 58.377,61.824 59.502,61.683 C59.483,60.036 57.303,57.579 54.517,56.805 C54.579,56.66 55.094,55.273 55.249,54.892 C55.334,54.684 53.171,53.514 52.866,53.617 C52.548,53.724 52.703,53.81 52.374,54.232 C52.341,54.276 52.801,56.355 52.492,56.601 C52.238,55.483 51.938,54.023 51.346,53.857 C51.028,53.766 48.877,54.283 48.777,54.781 C48.721,55.061 49.414,56.182 49.199,56.355 C48.552,56.881 47.8,56.981 47.8,56.981 C47.8,56.981 46.654,55.726 46.449,55.545 C46.263,55.381 44.068,56.487 44.143,57.236 C44.185,57.657 44.834,58.396 44.94,58.317 C45.316,58.033 45.813,57.799 46.525,57.893 C44.236,59.056 40.84,63.069 41.384,64.814 C41.966,64.42 42.102,63.783 43.057,64.453 C43.696,64.901 47.333,66.845 47.413,72.317 C47.493,77.793 39.912,83.226 37.518,78.902 C40.299,82.068 45.863,77.612 45.863,72.627 C45.863,67.641 42.68,66.065 42.387,65.516 C42.274,65.304 41.862,65.482 41.461,65.826 C40.975,66.243 40.06,66.097 38.231,67.757 C36.402,69.418 36.192,76.525 36.289,78.057 C36.501,81.369 40.071,85.661 41.721,88.834 C41.989,89.35 42.371,90.81 43.213,92.071 C44.031,93.297 45.866,94.347 46.28,94.716 C46.903,95.274 46.666,95.918 48.278,96.716 C51.331,98.225 55.726,93.385 56.805,91.198 C57.229,90.342 59.085,87.653 59.844,86.472 C60.604,85.288 61.471,83.464 61.505,82.418 C61.527,81.713 61.15,80.235 61.224,79.717 C61.373,78.66 62.091,77.514 62.145,77.009 C62.215,76.356 61.954,75.608 62.152,75.158 C62.349,74.706 62.68,73.96 62.595,73.115 C62.537,72.544 62.762,72.107 62.751,71.041 C62.513,70.854 62.061,70.313 60.652,70.763 C62.34,69.47 63.514,70.73 64.563,71.72 C64.77,71.914 66.027,70.397 66.09,70.234 C66.154,70.07 65.275,68.798 65.275,68.798 C65.275,68.798 66.428,68.91 66.541,68.742 C66.651,68.576 66.494,65.534 66.494,65.534 Z M25.406,64.62 L27.282,72.163 C27.553,73.06 27.657,73.957 27.844,74.852 L27.886,74.852 C28.053,73.935 28.115,73.039 28.365,72.122 L30.262,64.62 L33.513,64.62 L29.158,80.333 L26.616,80.333 L22.073,64.62 L25.406,64.62 Z M73.849,64.62 L73.849,70.769 L76.996,70.769 L76.996,64.62 L80.101,64.62 L80.101,80.333 L76.996,80.333 L76.996,73.685 L73.849,73.685 L73.849,80.333 L70.743,80.333 L70.743,64.62 L73.849,64.62 Z" fill="#FFFFFF"></path><path d="M25.756,24.604 L26.48,27.519 C26.584,27.865 26.625,28.212 26.697,28.558 L26.713,28.558 C26.777,28.204 26.802,27.857 26.898,27.502 L27.63,24.603 L28.887,24.603 L27.203,30.676 L26.221,30.676 L24.466,24.603 L25.756,24.603 L25.756,24.604 Z" fill="#FFFFFF"></path><rect fill="#FFFFFF" x="30" y="24.604" width="1.2" height="6.073"></rect><path d="M33.84,24.604 L35.338,28.268 L35.354,28.253 C35.281,27.962 35.257,27.649 35.257,27.335 L35.257,24.605 L36.458,24.605 L36.458,30.678 L35.322,30.678 L33.84,27.013 L33.823,27.029 L33.88,27.641 L33.888,27.891 L33.888,30.678 L32.688,30.678 L32.688,24.605 L33.84,24.605 L33.84,24.604 Z" fill="#FFFFFF"></path><path d="M40.708,24.604 L40.708,25.731 L39.759,25.731 L39.759,30.676 L38.559,30.676 L38.559,25.731 L37.616,25.731 L37.616,24.604 L40.708,24.604 Z" fill="#FFFFFF"></path><path d="M43.852,24.603 L45.31,30.676 L44.029,30.676 L43.803,29.652 L42.588,29.652 L42.37,30.676 L41.179,30.676 L42.588,24.603 L43.852,24.603 L43.852,24.603 Z M43.32,27.084 L43.183,26.166 L43.167,26.166 L43.039,27.084 L42.781,28.703 L43.626,28.703 L43.32,27.084 L43.32,27.084 Z" fill="#FFFFFF"></path><path d="M50.173,27.294 L50.173,27.769 C50.173,29.057 49.859,30.773 48.225,30.773 C46.589,30.773 46.057,29.018 46.057,27.673 C46.057,26.272 46.509,24.507 48.225,24.507 C49.151,24.507 49.754,25.088 50.012,25.949 L48.845,26.4 C48.788,26.094 48.692,25.618 48.233,25.618 C47.419,25.57 47.339,27.068 47.339,27.64 C47.339,28.268 47.379,29.661 48.265,29.661 C48.877,29.661 48.973,28.84 48.973,28.421 L48.209,28.421 L48.209,27.294 L50.173,27.294 L50.173,27.294 Z" fill="#FFFFFF"></path><path d="M53.875,24.604 L53.875,25.731 L52.659,25.731 L52.659,27.052 L53.729,27.052 L53.729,28.179 L52.659,28.179 L52.659,29.548 L53.891,29.548 L53.891,30.676 L51.459,30.676 L51.459,24.604 L53.875,24.604 Z" fill="#FFFFFF"></path><path d="M59.24,24.622 L59.24,26.998 L60.457,26.998 L60.457,24.622 L61.656,24.622 L61.656,30.694 L60.457,30.694 L60.457,28.125 L59.24,28.125 L59.24,30.694 L58.039,30.694 L58.039,24.622 L59.24,24.622 Z" fill="#FFFFFF"></path><path d="M65.569,24.622 L65.569,25.75 L64.353,25.75 L64.353,27.071 L65.423,27.071 L65.423,28.198 L64.353,28.198 L64.353,29.567 L65.585,29.567 L65.585,30.694 L63.152,30.694 L63.152,24.622 L65.569,24.622 Z" fill="#FFFFFF"></path><path d="M69.333,24.622 L70.791,30.694 L69.511,30.694 L69.286,29.671 L68.07,29.671 L67.851,30.694 L66.66,30.694 L68.07,24.622 L69.333,24.622 L69.333,24.622 Z M68.801,27.103 L68.665,26.185 L68.648,26.185 L68.52,27.103 L68.261,28.722 L69.106,28.722 L68.801,27.103 L68.801,27.103 Z" fill="#FFFFFF"></path><path d="M71.925,30.694 L71.925,24.622 L73.133,24.622 C73.899,24.622 75.267,24.703 75.267,26.361 C75.267,27.031 75.002,27.601 74.405,27.932 L75.461,30.694 L74.197,30.694 L73.142,27.892 L73.126,27.892 L73.126,30.694 L71.925,30.694 L71.925,30.694 Z M73.126,27.231 L73.335,27.239 C73.882,27.239 74.099,26.869 74.099,26.37 C74.099,25.935 73.89,25.581 73.287,25.613 L73.127,25.613 L73.127,27.231 L73.126,27.231 Z" fill="#FFFFFF"></path><path d="M79.534,24.622 L79.534,25.75 L78.583,25.75 L78.583,30.694 L77.383,30.694 L77.383,25.75 L76.44,25.75 L76.44,24.622 L79.534,24.622 Z" fill="#FFFFFF"></path><path d="M22.441,35.176 L23.498,35.176 L23.498,39.257 L22.397,39.257 C22.203,37.633 21.369,36.309 19.582,36.309 C17.393,36.309 16.843,38.304 16.843,40.255 C16.843,42.175 17.438,44.215 19.582,44.215 C21.28,44.215 22.099,43.024 22.263,41.445 L23.544,41.445 C23.364,44.036 21.875,45.495 19.269,45.495 C16.143,45.495 14.503,43.291 14.503,40.119 C14.503,37.32 16.35,35.026 19.447,35.026 C20.415,35.026 21.502,35.488 22.157,36.113 L22.441,35.176 L22.441,35.176 Z" fill="#FFFFFF"></path><g transform="translate(26.000000, 35.000000)" fill="#FFFFFF"><path d="M11.05,5.269 C11.05,8.233 8.905,10.496 5.675,10.496 C2.442,10.496 0.299,8.233 0.299,5.269 C0.299,2.306 2.442,0.027 5.675,0.027 C8.905,0.027 11.05,2.306 11.05,5.269 L11.05,5.269 Z M2.637,5.269 C2.637,7.399 3.321,9.335 5.718,9.335 C8.072,9.335 8.712,7.399 8.712,5.269 C8.712,3.14 8.073,1.189 5.675,1.189 C3.321,1.189 2.637,3.14 2.637,5.269 L2.637,5.269 Z"></path><path d="M13.463,10.199 L13.463,9.097 L14.386,9.097 C14.922,9.097 15.146,8.769 15.146,8.352 L15.146,1.978 C15.146,1.62 14.893,1.427 14.445,1.427 L13.463,1.427 L13.463,0.325 L22.86,0.325 L22.86,4.39 L21.758,4.39 C21.46,1.948 20.924,1.427 18.899,1.427 L17.231,1.427 L17.231,4.524 L17.93,4.524 C18.884,4.524 19.166,3.824 19.166,3.065 L19.166,2.678 L20.269,2.678 L20.269,7.651 L19.166,7.651 L19.166,7.085 C19.166,6.028 18.765,5.626 17.841,5.626 L17.231,5.626 L17.231,8.321 C17.231,8.887 17.483,9.096 18.169,9.096 L18.914,9.096 L18.914,10.198 L13.463,10.198 L13.463,10.199 Z"></path><path d="M25.719,10.199 L25.719,9.097 L26.643,9.097 C27.179,9.097 27.402,8.769 27.402,8.352 L27.402,1.978 C27.402,1.62 27.149,1.427 26.702,1.427 L25.719,1.427 L25.719,0.325 L35.116,0.325 L35.116,4.39 L34.013,4.39 C33.715,1.948 33.18,1.427 31.155,1.427 L29.487,1.427 L29.487,4.524 L30.187,4.524 C31.14,4.524 31.422,3.824 31.422,3.065 L31.422,2.678 L32.524,2.678 L32.524,7.651 L31.422,7.651 L31.422,7.085 C31.422,6.028 31.021,5.626 30.097,5.626 L29.487,5.626 L29.487,8.321 C29.487,8.887 29.739,9.096 30.425,9.096 L31.169,9.096 L31.169,10.198 L25.719,10.198 L25.719,10.199 Z"></path><path d="M38.035,10.199 L38.035,9.097 L38.868,9.097 C39.375,9.097 39.659,8.947 39.659,8.054 L39.659,2.262 C39.659,1.621 39.478,1.428 38.706,1.428 L38.035,1.428 L38.035,0.326 L47.864,0.326 L47.864,4.258 L46.761,4.258 C46.537,2.233 46.359,1.428 44.363,1.428 L41.744,1.428 L41.744,4.525 L42.531,4.525 C43.427,4.525 43.827,4.079 43.827,2.872 L43.827,2.679 L44.931,2.679 L44.931,7.652 L43.827,7.652 L43.827,7.294 C43.827,6.088 43.427,5.626 42.531,5.626 L41.744,5.626 L41.744,9.097 L44.723,9.097 C46.092,9.097 46.627,8.248 46.762,6.029 L47.865,6.029 L47.865,10.199 L38.035,10.199 L38.035,10.199 Z"></path><path d="M51.021,10.199 L51.021,9.097 L51.855,9.097 C52.362,9.097 52.644,8.947 52.644,8.054 L52.644,2.262 C52.644,1.621 52.465,1.428 51.69,1.428 L51.021,1.428 L51.021,0.326 L60.849,0.326 L60.849,4.258 L59.747,4.258 C59.523,2.233 59.346,1.428 57.35,1.428 L54.729,1.428 L54.729,4.525 L55.518,4.525 C56.412,4.525 56.814,4.079 56.814,2.872 L56.814,2.679 L57.916,2.679 L57.916,7.652 L56.814,7.652 L56.814,7.294 C56.814,6.088 56.412,5.626 55.518,5.626 L54.729,5.626 L54.729,9.097 L57.708,9.097 C59.077,9.097 59.614,8.248 59.748,6.029 L60.85,6.029 L60.85,10.199 L51.021,10.199 L51.021,10.199 Z"></path></g><g transform="translate(44.000000, 15.000000)" fill="#FFFFFF"><path d="M2.757,3.568 C2.697,3.69 2.631,3.801 2.557,3.902 C2.482,4.003 2.401,4.09 2.31,4.167 C2.219,4.243 2.128,4.301 2.035,4.341 C1.944,4.38 1.848,4.4 1.75,4.4 C1.534,4.4 1.395,4.334 1.334,4.203 C1.273,4.072 1.243,3.916 1.243,3.736 C1.078,3.931 0.915,4.09 0.755,4.214 C0.594,4.338 0.411,4.4 0.205,4.4 C0.083,4.4 -0.017,4.366 -0.098,4.299 C-0.178,4.233 -0.238,4.142 -0.276,4.028 C-0.314,3.915 -0.333,3.794 -0.333,3.664 C-0.333,3.386 -0.262,3.092 -0.12,2.784 C0.022,2.475 0.214,2.215 0.459,2.006 C0.704,1.796 0.967,1.691 1.248,1.691 C1.378,1.691 1.48,1.716 1.555,1.768 C1.629,1.819 1.68,1.877 1.707,1.941 C1.735,2.004 1.759,2.076 1.78,2.154 L1.894,1.768 L2.577,1.768 L2.003,3.651 C1.961,3.788 1.941,3.87 1.941,3.898 C1.941,3.925 1.949,3.948 1.967,3.966 C1.985,3.985 2.004,3.994 2.027,3.994 C2.161,3.994 2.304,3.852 2.456,3.568 L2.757,3.568 L2.757,3.568 Z M1.605,2.335 C1.605,2.235 1.586,2.148 1.548,2.077 C1.509,2.004 1.441,1.968 1.34,1.968 C1.185,1.968 1.035,2.058 0.889,2.235 C0.745,2.413 0.628,2.629 0.537,2.881 C0.449,3.134 0.404,3.345 0.404,3.518 C0.404,3.768 0.483,3.893 0.638,3.893 C0.747,3.893 0.86,3.843 0.974,3.743 C1.088,3.643 1.193,3.51 1.289,3.343 C1.39,3.171 1.469,2.995 1.523,2.818 C1.578,2.641 1.605,2.48 1.605,2.335 L1.605,2.335 Z"></path><path d="M6.254,3.531 C6.17,3.736 6.048,3.93 5.887,4.118 C5.728,4.306 5.512,4.4 5.24,4.4 C5.072,4.4 4.952,4.354 4.884,4.264 C4.815,4.173 4.78,4.068 4.78,3.948 C4.78,3.897 4.79,3.829 4.81,3.744 C4.83,3.66 4.855,3.565 4.885,3.463 L4.987,3.114 C4.767,3.472 4.54,3.776 4.306,4.025 C4.072,4.275 3.812,4.4 3.527,4.4 C3.38,4.4 3.268,4.357 3.19,4.273 C3.111,4.189 3.072,4.089 3.072,3.974 C3.072,3.865 3.101,3.718 3.158,3.532 L3.47,2.513 C3.512,2.39 3.532,2.301 3.532,2.247 C3.532,2.223 3.525,2.197 3.509,2.172 C3.493,2.145 3.468,2.133 3.431,2.133 C3.309,2.133 3.155,2.277 2.97,2.565 L2.687,2.565 C2.827,2.341 2.983,2.144 3.155,1.976 C3.326,1.807 3.541,1.722 3.799,1.722 C3.916,1.722 4.024,1.753 4.122,1.816 C4.219,1.879 4.268,1.996 4.268,2.167 C4.268,2.268 4.256,2.359 4.228,2.439 L3.975,3.26 C3.917,3.449 3.889,3.586 3.889,3.67 C3.889,3.716 3.903,3.759 3.931,3.8 C3.958,3.841 3.997,3.862 4.047,3.862 C4.143,3.862 4.263,3.789 4.405,3.641 C4.547,3.494 4.702,3.265 4.87,2.953 C5.038,2.641 5.202,2.25 5.363,1.781 L6.098,1.781 L5.52,3.665 C5.483,3.799 5.465,3.879 5.465,3.906 C5.465,3.93 5.475,3.956 5.494,3.982 C5.514,4.007 5.535,4.02 5.557,4.02 C5.633,4.02 5.707,3.968 5.777,3.866 C5.848,3.763 5.909,3.651 5.966,3.532 L6.254,3.532 L6.254,3.531 Z"></path><path d="M9.117,2.215 C9.117,2.3 9.091,2.374 9.033,2.438 C8.976,2.502 8.9,2.534 8.803,2.534 C8.729,2.534 8.671,2.519 8.629,2.49 C8.586,2.461 8.553,2.421 8.53,2.369 C8.506,2.318 8.477,2.242 8.442,2.14 C8.421,2.07 8.389,2.016 8.344,1.976 C8.301,1.937 8.217,1.917 8.099,1.917 C7.993,1.917 7.896,1.944 7.81,2 C7.724,2.056 7.682,2.129 7.682,2.22 C7.682,2.282 7.699,2.341 7.735,2.396 C7.769,2.451 7.813,2.504 7.863,2.553 C7.913,2.603 7.993,2.672 8.099,2.762 C8.301,2.928 8.447,3.066 8.539,3.18 C8.631,3.293 8.677,3.432 8.677,3.599 C8.677,3.735 8.637,3.864 8.56,3.985 C8.482,4.106 8.352,4.206 8.17,4.282 C7.989,4.358 7.757,4.397 7.475,4.397 C7.07,4.397 6.785,4.322 6.62,4.173 C6.455,4.023 6.373,3.878 6.373,3.738 C6.373,3.646 6.404,3.564 6.469,3.495 C6.532,3.425 6.616,3.39 6.722,3.39 C6.932,3.39 7.052,3.525 7.082,3.794 C7.098,3.909 7.129,4.001 7.181,4.067 C7.231,4.134 7.336,4.168 7.494,4.168 C7.632,4.168 7.746,4.133 7.833,4.063 C7.921,3.993 7.966,3.904 7.966,3.794 C7.966,3.736 7.951,3.68 7.921,3.624 C7.891,3.568 7.829,3.501 7.735,3.419 C7.568,3.279 7.43,3.156 7.322,3.049 C7.214,2.942 7.132,2.839 7.077,2.741 C7.021,2.642 6.993,2.537 6.993,2.429 C6.993,2.332 7.024,2.227 7.088,2.114 C7.152,2.001 7.272,1.902 7.45,1.817 C7.626,1.731 7.867,1.689 8.169,1.689 C8.356,1.689 8.511,1.706 8.64,1.74 C8.767,1.774 8.865,1.818 8.935,1.87 C9.004,1.923 9.052,1.978 9.077,2.037 C9.104,2.097 9.117,2.156 9.117,2.215 L9.117,2.215 Z"></path><path d="M11.274,1.78 L11.188,2.064 L10.573,2.064 L10.107,3.589 C10.071,3.698 10.053,3.777 10.053,3.827 C10.053,3.87 10.069,3.91 10.097,3.946 C10.126,3.982 10.162,4 10.204,4 C10.324,4 10.43,3.941 10.519,3.825 C10.61,3.708 10.692,3.582 10.763,3.447 L11.054,3.447 C10.939,3.702 10.809,3.901 10.662,4.045 C10.516,4.189 10.381,4.283 10.256,4.329 C10.129,4.375 10.013,4.399 9.907,4.399 C9.729,4.399 9.592,4.347 9.493,4.244 C9.394,4.141 9.345,4.004 9.345,3.833 C9.345,3.716 9.376,3.556 9.439,3.354 L9.839,2.064 L9.262,2.064 L9.351,1.78 L9.927,1.78 L10.211,0.838 L10.945,0.838 L10.66,1.78 L11.274,1.78 L11.274,1.78 Z"></path><path d="M12.896,3.568 C12.816,3.747 12.691,3.93 12.519,4.118 C12.348,4.306 12.134,4.4 11.877,4.4 C11.703,4.4 11.574,4.356 11.487,4.271 C11.4,4.185 11.357,4.084 11.357,3.967 C11.357,3.848 11.395,3.682 11.471,3.47 L11.869,2.38 C11.908,2.281 11.928,2.214 11.928,2.179 C11.928,2.157 11.919,2.136 11.9,2.117 C11.882,2.098 11.862,2.09 11.839,2.09 C11.768,2.09 11.692,2.144 11.609,2.253 C11.525,2.362 11.462,2.46 11.422,2.547 L11.151,2.547 C11.272,2.275 11.429,2.065 11.625,1.915 C11.819,1.766 12.014,1.691 12.206,1.691 C12.343,1.691 12.456,1.724 12.545,1.791 C12.635,1.857 12.681,1.947 12.681,2.058 C12.681,2.175 12.657,2.294 12.612,2.414 L12.131,3.708 C12.098,3.796 12.081,3.869 12.081,3.925 C12.081,3.949 12.091,3.973 12.111,3.997 C12.131,4.02 12.151,4.033 12.173,4.033 C12.235,4.033 12.3,4 12.365,3.934 C12.431,3.868 12.512,3.746 12.612,3.569 L12.896,3.569 L12.896,3.568 Z M13.123,0.446 C13.123,0.557 13.084,0.652 13.005,0.732 C12.926,0.811 12.834,0.851 12.727,0.851 C12.611,0.851 12.514,0.811 12.437,0.732 C12.359,0.652 12.321,0.557 12.321,0.446 C12.321,0.339 12.359,0.246 12.437,0.167 C12.514,0.088 12.611,0.048 12.727,0.048 C12.8,0.048 12.869,0.065 12.928,0.102 C12.989,0.138 13.037,0.185 13.072,0.244 C13.106,0.303 13.123,0.37 13.123,0.446 L13.123,0.446 Z"></path><path d="M16.506,3.5 C16.448,3.609 16.368,3.728 16.267,3.858 C16.165,3.987 16.039,4.103 15.887,4.202 C15.735,4.302 15.569,4.352 15.394,4.352 C15.242,4.352 15.123,4.315 15.033,4.241 C14.945,4.166 14.9,4.07 14.9,3.948 C14.9,3.853 14.926,3.725 14.978,3.562 L15.203,2.817 C15.268,2.615 15.299,2.477 15.299,2.4 C15.299,2.355 15.285,2.313 15.258,2.275 C15.23,2.238 15.191,2.22 15.143,2.22 C15.031,2.22 14.896,2.313 14.734,2.501 C14.574,2.689 14.411,2.942 14.246,3.261 C14.079,3.58 13.936,3.929 13.814,4.308 L13.079,4.308 L13.639,2.497 C13.689,2.316 13.714,2.211 13.714,2.183 C13.714,2.158 13.706,2.133 13.695,2.107 C13.682,2.081 13.658,2.068 13.623,2.068 C13.544,2.068 13.467,2.118 13.394,2.219 C13.321,2.32 13.259,2.43 13.208,2.549 L12.949,2.549 C13.027,2.328 13.147,2.13 13.31,1.953 C13.472,1.776 13.679,1.687 13.93,1.687 C14.091,1.687 14.211,1.73 14.29,1.816 C14.369,1.903 14.408,1.995 14.408,2.092 C14.408,2.145 14.398,2.226 14.374,2.336 C14.351,2.444 14.327,2.547 14.298,2.642 L14.19,2.96 C14.445,2.566 14.686,2.256 14.91,2.029 C15.135,1.802 15.383,1.688 15.658,1.688 C15.816,1.688 15.93,1.733 16.004,1.826 C16.075,1.917 16.111,2.017 16.111,2.123 C16.111,2.189 16.087,2.314 16.036,2.497 L15.713,3.572 C15.676,3.706 15.658,3.8 15.658,3.854 C15.658,3.874 15.664,3.894 15.678,3.913 C15.691,3.931 15.709,3.941 15.731,3.941 C15.79,3.941 15.864,3.9 15.953,3.818 C16.044,3.737 16.125,3.63 16.202,3.498 L16.506,3.498 L16.506,3.5 Z"></path></g><path d="M41.234,18.561 L28.649,18.077 L41.234,17.592 L41.234,18.561 Z" fill="#FFFFFF"></path><path d="M61.816,17.275 L75.351,17.76 L61.816,18.244 L61.816,17.275 Z" fill="#FFFFFF"></path></g></g></svg>
